<svg version="1.1" id="Layer_1" xmlns="http://www.w3.org/2000/svg" x="0" y="0" viewBox="0 0 2665.9 3000" style="enable-background:new 0 0 2665.9 3000" xml:space="preserve"><style>.st3{fill:#fff}</style><path d="M2632 2250c20.9-36.2 33.9-77.1 33.9-113.7V863.7c0-36.7-13-77.5-33.9-113.7l-1299 750 1299 750z" style="fill:#00599c"/><path d="m1448.4 2972.5 1102.1-636.3c31.7-18.3 60.6-50 81.5-86.2l-1299-750L34 2250c20.9 36.2 49.8 67.9 81.5 86.2l1102.1 636.3c63.4 36.7 167.3 36.7 230.8 0z" style="fill:#004482"/><path d="M2632 750c-20.9-36.2-49.8-67.9-81.5-86.2L1448.4 27.5c-63.5-36.7-167.4-36.7-230.9 0L115.4 663.8C51.9 700.4 0 790.4 0 863.7v1272.6c0 36.7 13 77.5 33.9 113.7l1299-750L2632 750z" style="fill:#659ad2"/><path class="st3" d="M1332.9 2388.6c-490 0-888.6-398.6-888.6-888.6S843 611.4 1332.9 611.4c316.2 0 611.1 170.1 769.5 444L1717.9 1278c-79.3-137.1-226.8-222.3-385-222.3-245 0-444.3 199.3-444.3 444.3s199.3 444.3 444.3 444.3c158.1 0 305.7-85.2 385-222.3l384.6 222.5c-158.5 274-453.4 444.1-769.6 444.1z"/><path class="st3" d="M2221.6 1450.6h-98.8v-98.7h-98.7v98.7h-98.7v98.8h98.7v98.7h98.7v-98.7h98.8zM2591.8 1450.6h-98.7v-98.7h-98.7v98.7h-98.8v98.8h98.8v98.7h98.7v-98.7h98.7z"/></svg>