<svg width="24" height="27" viewBox="0 0 24 27" xmlns="http://www.w3.org/2000/svg">
<g filter="url(#filter0_d_333_94)">
<path  clip-rule="evenodd" d="M12.6667 1.66675C12.8877 1.66675 13.0997 1.75455 13.256 1.91083L17.4226 6.07749C17.5789 6.23377 17.6667 6.44573 17.6667 6.66675V7.50008C17.6667 7.96032 17.2936 8.33341 16.8334 8.33341H11.8334C11.406 8.33341 11.0538 8.01171 11.0056 7.59727L11 7.50008L10.9992 3.33341H6.83337C6.37314 3.33341 6.00004 3.70651 6.00004 4.16675V15.8334C6.00004 16.2937 6.37314 16.6667 6.83337 16.6667H8.50004C8.96028 16.6667 9.33337 17.0398 9.33337 17.5001C9.33337 17.9603 8.96028 18.3334 8.50004 18.3334H6.83337C5.45266 18.3334 4.33337 17.2141 4.33337 15.8334V4.16675C4.33337 2.78604 5.45266 1.66675 6.83337 1.66675H12.6667ZM15.1667 10.0001C15.6269 10.0001 16 10.3732 16 10.8334V13.3334H18.5C18.9603 13.3334 19.3334 13.7065 19.3334 14.1667C19.3334 14.627 18.9603 15.0001 18.5 15.0001H16V17.5001C16 17.9603 15.6269 18.3334 15.1667 18.3334C14.7065 18.3334 14.3334 17.9603 14.3334 17.5001V15.0001H11.8334C11.3731 15.0001 11 14.627 11 14.1667C11 13.7065 11.3731 13.3334 11.8334 13.3334H14.3334V10.8334C14.3334 10.3732 14.7065 10.0001 15.1667 10.0001ZM12.6659 3.67841L12.6667 6.66675H15.655L12.6659 3.67841Z"/>
</g>
<defs>
<filter id="filter0_d_333_94" x="-3" y="0" width="28" height="28" filterUnits="userSpaceOnUse" color-interpolation-filters="sRGB">
<feFlood flood-opacity="0" result="BackgroundImageFix"/>
<feColorMatrix in="SourceAlpha" type="matrix" values="0 0 0 0 0 0 0 0 0 0 0 0 0 0 0 0 0 0 127 0" result="hardAlpha"/>
<feOffset dy="4"/>
<feGaussianBlur stdDeviation="2"/>
<feComposite in2="hardAlpha" operator="out"/>
<feColorMatrix type="matrix" values="0 0 0 0 0 0 0 0 0 0 0 0 0 0 0 0 0 0 0.25 0"/>
<feBlend mode="normal" in2="BackgroundImageFix" result="effect1_dropShadow_333_94"/>
<feBlend mode="normal" in="SourceGraphic" in2="effect1_dropShadow_333_94" result="shape"/>
</filter>
</defs>
</svg>
