<svg width="28" height="27" viewBox="0 0 28 27" xmlns="http://www.w3.org/2000/svg">
<g filter="url(#filter0_d_333_87)">
<path d="M20.0492 13.0941V11.5259H18.8248V13.0941H17.3348V14.3186H18.8248V15.8868H20.0492V14.3186H21.5392V13.0941H20.0492Z" />
<path d="M23.273 11.2655C22.8103 10.5445 22.1584 9.96737 21.3878 9.59666H21.3877C21.3642 9.58537 21.3403 9.57491 21.3165 9.56405V5.16472V4.55249V2.37246H13.0195L12.6164 1.64258H4V14.8751H14.9258C14.9613 15.0163 15.0032 15.1559 15.052 15.2931C15.2844 15.9468 15.6692 16.5498 16.1648 17.0367C17.0317 17.8884 18.1781 18.3574 19.393 18.3574C21.9333 18.3574 24 16.2907 24 13.7504C24 12.8661 23.7486 12.0069 23.273 11.2655ZM20.092 3.59695V4.55249H14.2237L13.6959 3.59695H20.092ZM15.9703 10.6675C15.9551 10.6845 15.9397 10.7013 15.9247 10.7185C15.9128 10.7321 15.9013 10.7458 15.8897 10.7595C15.8751 10.7766 15.8604 10.7937 15.846 10.811C15.8345 10.8249 15.8232 10.8391 15.8118 10.8532C15.7978 10.8705 15.7837 10.8878 15.77 10.9053C15.7587 10.9196 15.7478 10.9342 15.7366 10.9487C15.7232 10.9662 15.7097 10.9836 15.6966 11.0013C15.6856 11.016 15.675 11.031 15.6642 11.0458C15.6513 11.0636 15.6384 11.0813 15.6258 11.0992C15.6153 11.1142 15.605 11.1293 15.5947 11.1444C15.5822 11.1625 15.5698 11.1806 15.5576 11.1989C15.5475 11.2141 15.5376 11.2295 15.5277 11.2448C15.5158 11.2632 15.5038 11.2815 15.4922 11.3001C15.4824 11.3156 15.4729 11.3312 15.4634 11.3469C15.452 11.3655 15.4406 11.3842 15.4295 11.4029C15.4201 11.4187 15.411 11.4346 15.4019 11.4504C15.391 11.4693 15.3802 11.4882 15.3695 11.5072C15.3606 11.5233 15.3519 11.5394 15.3431 11.5556C15.3328 11.5747 15.3224 11.5938 15.3123 11.6131C15.3038 11.6293 15.2955 11.6456 15.2872 11.662C15.2773 11.6813 15.2675 11.7008 15.2579 11.7203C15.2498 11.7367 15.2419 11.7533 15.234 11.7698C15.2247 11.7895 15.2154 11.8091 15.2063 11.8289C15.1987 11.8456 15.1912 11.8623 15.1838 11.879C15.1749 11.8989 15.1662 11.9188 15.1576 11.9388C15.1504 11.9557 15.1433 11.9726 15.1363 11.9895C15.128 12.0097 15.1198 12.0298 15.1118 12.0501C15.1051 12.0671 15.0984 12.0841 15.0919 12.1012C15.084 12.1215 15.0763 12.142 15.0688 12.1624C15.0626 12.1796 15.0563 12.1968 15.0503 12.214C15.043 12.2346 15.0358 12.2553 15.0288 12.276C15.023 12.2933 15.0172 12.3106 15.0116 12.3279C15.0048 12.3487 14.9982 12.3696 14.9917 12.3906C14.9863 12.408 14.981 12.4254 14.9759 12.4429C14.9697 12.4639 14.9636 12.485 14.9577 12.506C14.9528 12.5237 14.9479 12.5413 14.9431 12.559C14.9375 12.5801 14.932 12.6013 14.9267 12.6224C14.9222 12.6403 14.9177 12.6581 14.9134 12.676C14.9083 12.6972 14.9035 12.7184 14.8987 12.7397C14.8946 12.7578 14.8906 12.7758 14.8867 12.7938C14.8822 12.8151 14.8779 12.8365 14.8737 12.858C14.8701 12.8761 14.8665 12.8942 14.8631 12.9124C14.8592 12.9339 14.8554 12.9556 14.8517 12.9772C14.8486 12.9953 14.8455 13.0135 14.8426 13.0317C14.8392 13.0533 14.8361 13.0751 14.8329 13.0968C14.8303 13.1151 14.8276 13.1335 14.8253 13.1519C14.8224 13.1736 14.8199 13.1954 14.8173 13.2172C14.8152 13.2356 14.8129 13.2541 14.811 13.2726C14.8087 13.2944 14.8068 13.3164 14.8048 13.3383C14.8031 13.3568 14.8014 13.3753 14.8 13.3938C14.7983 13.4158 14.7969 13.4378 14.7955 13.4599C14.7944 13.4785 14.7931 13.4971 14.7921 13.5158C14.791 13.5378 14.7903 13.5598 14.7895 13.5819C14.7888 13.6006 14.7879 13.6194 14.7875 13.6381C14.7874 13.6424 14.7872 13.6465 14.7871 13.6507H5.22449V2.86707H11.8939L13.5012 5.77695H20.092V9.19627C20.0689 9.19272 20.0456 9.19018 20.0224 9.18698C19.9971 9.1835 19.9718 9.17991 19.9465 9.1769C19.9093 9.17245 19.8721 9.16881 19.8348 9.16522C19.8108 9.16291 19.7868 9.16034 19.7628 9.15842C19.7216 9.15514 19.6804 9.15288 19.6391 9.15073C19.6188 9.14967 19.5985 9.14807 19.5782 9.14725C19.5166 9.14479 19.4548 9.14342 19.3929 9.14342C18.7926 9.14342 18.208 9.25764 17.6553 9.48284C17.1928 9.67135 16.766 9.93264 16.3868 10.2594C16.3769 10.2679 16.3671 10.2765 16.3556 10.2867C16.3248 10.3137 16.2944 10.3411 16.2644 10.3688C16.2545 10.378 16.245 10.3874 16.2352 10.3965C16.2153 10.4153 16.1953 10.434 16.1758 10.4531C16.1643 10.4644 16.1531 10.4759 16.1417 10.4873C16.1242 10.5047 16.1067 10.522 16.0896 10.5396C16.0776 10.552 16.0659 10.5646 16.054 10.5771C16.0379 10.5941 16.0217 10.6109 16.0059 10.628C15.9939 10.6411 15.9822 10.6544 15.9703 10.6675ZM19.393 17.1329C18.5011 17.1329 17.6593 16.7885 17.0229 16.1632C16.659 15.8056 16.3764 15.3629 16.2057 14.8829C16.1255 14.6574 16.0694 14.4231 16.0388 14.1864L16.0374 14.1758C16.0348 14.1557 16.0322 14.1356 16.03 14.115C16.017 13.9934 16.0104 13.8707 16.0104 13.7504C16.0104 12.777 16.4305 11.8499 17.1631 11.2071L17.1861 11.1869C17.4646 10.9469 17.778 10.7551 18.1174 10.6167C18.472 10.4722 18.8449 10.3901 19.2281 10.3718C19.2828 10.3692 19.3377 10.3679 19.3929 10.3679C19.5355 10.3679 19.6772 10.3767 19.8173 10.3943C20.0509 10.4236 20.2804 10.4772 20.5031 10.5546L20.504 10.5549C20.5891 10.5846 20.6728 10.6174 20.7528 10.6526C20.7878 10.668 20.8226 10.6837 20.857 10.7002C22.0224 11.2608 22.7754 12.4581 22.7754 13.7504C22.7755 15.6155 21.2581 17.1329 19.393 17.1329Z"/>
</g>
<defs>
<filter id="filter0_d_333_87" x="0" y="0" width="28" height="28" filterUnits="userSpaceOnUse" color-interpolation-filters="sRGB">
<feFlood flood-opacity="0" result="BackgroundImageFix"/>
<feColorMatrix in="SourceAlpha" type="matrix" values="0 0 0 0 0 0 0 0 0 0 0 0 0 0 0 0 0 0 127 0" result="hardAlpha"/>
<feOffset dy="4"/>
<feGaussianBlur stdDeviation="2"/>
<feComposite in2="hardAlpha" operator="out"/>
<feColorMatrix type="matrix" values="0 0 0 0 0 0 0 0 0 0 0 0 0 0 0 0 0 0 0.25 0"/>
<feBlend mode="normal" in2="BackgroundImageFix" result="effect1_dropShadow_333_87"/>
<feBlend mode="normal" in="SourceGraphic" in2="effect1_dropShadow_333_87" result="shape"/>
</filter>
</defs>
</svg>
