<svg width="23" height="23" viewBox="0 0 23 23" fill="inherit" xmlns="http://www.w3.org/2000/svg">
<g clip-path="url(#clip0_333_96)" filter="url(#filter0_d_333_96)">
<path d="M18.375 7.49993C18.375 8.85968 17.9718 10.1889 17.2164 11.3195C16.4609 12.4501 15.3872 13.3312 14.131 13.8516C12.8747 14.372 11.4924 14.5081 10.1588 14.2428C8.82514 13.9776 7.60013 13.3228 6.63864 12.3613C5.67716 11.3998 5.02238 10.1748 4.7571 8.84118C4.49183 7.50756 4.62798 6.12522 5.14833 4.86898C5.66868 3.61274 6.54987 2.53901 7.68046 1.78358C8.81105 1.02814 10.1403 0.62493 11.5 0.62493C12.8018 0.620584 14.0775 0.989299 15.1763 1.68743L16.0581 0.805555C16.1457 0.718022 16.2573 0.658466 16.3787 0.63444C16.5002 0.610414 16.626 0.623002 16.7403 0.670606C16.8546 0.71821 16.9522 0.798686 17.0207 0.901826C17.0892 1.00497 17.1255 1.12612 17.125 1.24993V3.74993C17.125 3.91569 17.0592 4.07466 16.9419 4.19187C16.8247 4.30908 16.6658 4.37493 16.5 4.37493H14C13.8764 4.3749 13.7556 4.33823 13.6528 4.26956C13.5501 4.20088 13.47 4.10328 13.4227 3.98909C13.3754 3.8749 13.363 3.74926 13.3871 3.62803C13.4112 3.50681 13.4707 3.39546 13.5581 3.30805L14.2625 2.60368C13.4208 2.12439 12.4686 1.87319 11.5 1.87493C10.3875 1.87493 9.29995 2.20483 8.37492 2.82291C7.44989 3.441 6.72892 4.3195 6.30318 5.34734C5.87744 6.37517 5.76604 7.50617 5.98309 8.59731C6.20013 9.68845 6.73586 10.6907 7.52253 11.4774C8.3092 12.2641 9.31148 12.7998 10.4026 13.0168C11.4938 13.2339 12.6248 13.1225 13.6526 12.6968C14.6804 12.271 15.5589 11.55 16.177 10.625C16.7951 9.69998 17.125 8.61245 17.125 7.49993C17.125 7.33417 17.1909 7.1752 17.3081 7.05799C17.4253 6.94078 17.5842 6.87493 17.75 6.87493C17.9158 6.87493 18.0747 6.94078 18.1919 7.05799C18.3092 7.1752 18.375 7.33417 18.375 7.49993Z" fill="inherit"/>
</g>
<defs>
<filter id="filter0_d_333_96" x="0" y="0" width="23" height="23" filterUnits="userSpaceOnUse" color-interpolation-filters="sRGB">
<feFlood flood-opacity="0" result="BackgroundImageFix"/>
<feColorMatrix in="SourceAlpha" type="matrix" values="0 0 0 0 0 0 0 0 0 0 0 0 0 0 0 0 0 0 127 0" result="hardAlpha"/>
<feOffset dy="4"/>
<feGaussianBlur stdDeviation="2"/>
<feComposite in2="hardAlpha" operator="out"/>
<feColorMatrix type="matrix" values="0 0 0 0 0 0 0 0 0 0 0 0 0 0 0 0 0 0 0.25 0"/>
<feBlend mode="normal" in2="BackgroundImageFix" result="effect1_dropShadow_333_96"/>
<feBlend mode="normal" in="SourceGraphic" in2="effect1_dropShadow_333_96" result="shape"/>
</filter>
<clipPath id="clip0_333_96">
<rect width="15" height="15" fill="inherit" transform="translate(4)"/>
</clipPath>
</defs>
</svg>
