<svg class="w-full" width="816" height="264" viewBox="0 0 816 264" fill="none" xmlns="http://www.w3.org/2000/svg">
<g style="mix-blend-mode:overlay" opacity="0.6">
<path fill-rule="evenodd" clip-rule="evenodd" d="M740.679 52.8009L698.255 91.0337L737.214 123.809L816 52.8009H740.679ZM489.603 52.8009L600.074 179.519L643.71 140.191L477.048 0H552.369L680.071 107.421L719.035 140.191L803.446 211.199H728.125L682.669 172.966L640.245 211.199H627.695H564.924H552.369L517.848 171.598H418.983L451.94 132.002H483.323L452.816 97.0058L313.847 264H238.522L282.46 211.199H276.185H225.968H213.414L175.755 116.16L138.092 211.199H125.538H75.3212H62.7669L0 52.8009H62.7669L100.43 147.84L138.092 52.8009H150.647H200.864H213.414L251.076 147.84L288.739 52.8009H351.506L294.444 196.801L414.277 52.8009H489.603Z" fill="url(#paint0_linear_1_374)"/>
</g>
<defs>
<linearGradient id="paint0_linear_1_374" x1="763.182" y1="-5.09366e-05" x2="7.41321" y2="263.418" gradientUnits="userSpaceOnUse">
<stop stop-color="#C8D4FE"/>
<stop offset="1" stop-color="#FF7A00" stop-opacity="0.28"/>
</linearGradient>
</defs>
</svg>
