<svg width="100" height="100" viewBox="0 0 100 100" fill="none" xmlns="http://www.w3.org/2000/svg">
<g clip-path="url(#clip0_1_1113)">
<path opacity="0.3" d="M50 20C55.5228 20 60 15.5228 60 10C60 4.47715 55.5228 0 50 0C44.4772 0 40 4.47715 40 10C40 15.5228 44.4772 20 50 20Z" fill="#808080"/>
<path opacity="0.3" d="M78.284 31.7161C83.8068 31.7161 88.284 27.2389 88.284 21.7161C88.284 16.1932 83.8068 11.7161 78.284 11.7161C72.7611 11.7161 68.284 16.1932 68.284 21.7161C68.284 27.2389 72.7611 31.7161 78.284 31.7161Z" fill="#808080"/>
<path opacity="0.3" d="M90 60C95.5228 60 100 55.5228 100 50C100 44.4772 95.5228 40 90 40C84.4772 40 80 44.4772 80 50C80 55.5228 84.4772 60 90 60Z" fill="#808080"/>
<path opacity="0.3" d="M78.284 88.2839C83.8068 88.2839 88.284 83.8068 88.284 78.2839C88.284 72.7611 83.8068 68.2839 78.284 68.2839C72.7611 68.2839 68.284 72.7611 68.284 78.2839C68.284 83.8068 72.7611 88.2839 78.284 88.2839Z" fill="#808080"/>
<path opacity="0.3" d="M50 100C55.5228 100 60 95.5228 60 90C60 84.4772 55.5228 80 50 80C44.4772 80 40 84.4772 40 90C40 95.5228 44.4772 100 50 100Z" fill="#808080"/>
<path opacity="0.3" d="M21.716 88.2839C27.2389 88.2839 31.716 83.8068 31.716 78.2839C31.716 72.7611 27.2389 68.2839 21.716 68.2839C16.1932 68.2839 11.716 72.7611 11.716 78.2839C11.716 83.8068 16.1932 88.2839 21.716 88.2839Z" fill="#808080"/>
<path opacity="0.3" d="M10 60C15.5228 60 20 55.5228 20 50C20 44.4772 15.5228 40 10 40C4.47715 40 0 44.4772 0 50C0 55.5228 4.47715 60 10 60Z" fill="#808080"/>
<path opacity="0.3" d="M21.716 31.7161C27.2389 31.7161 31.716 27.2389 31.716 21.7161C31.716 16.1932 27.2389 11.7161 21.716 11.7161C16.1932 11.7161 11.716 16.1932 11.716 21.7161C11.716 27.2389 16.1932 31.7161 21.716 31.7161Z" fill="#808080"/>
</g>
<defs>
<clipPath id="clip0_1_1113">
<rect width="100" height="100" fill="white"/>
</clipPath>
</defs>
</svg>
