<svg width="255" height="255" viewBox="0 0 255 255" fill="none" xmlns="http://www.w3.org/2000/svg">
<circle cx="127.5" cy="127.5" r="127.5" fill="black"/>
<g filter="url(#filter0_i_1_1108)">
<path d="M17.4291 83.7773C44.2004 54.9025 78.9488 34.6349 117.262 25.548L121.6 24.519V179.69C111.761 179.69 103.785 187.666 103.785 197.505V198.512C103.785 208.121 111.394 216.004 120.996 216.345V227.952H103.785C85.2906 212.281 85.2906 183.754 103.785 168.083V129.596L98.6523 119.516V61.4791C78.3033 62.2633 59.0397 70.8612 44.8676 85.4848L36.7535 93.8573L38.2333 93.6532C46.0619 92.5732 54.0062 92.642 61.815 93.8573C46.8818 100.019 33.4766 109.828 23.166 122.265L22.7573 121.349C17.4992 109.571 15.6531 96.5531 17.4291 83.7773Z" fill="url(#paint0_diamond_1_1108)"/>
</g>
<g filter="url(#filter1_i_1_1108)">
<path d="M232.667 83.7773C205.896 54.9025 171.147 34.6349 132.834 25.548L128.496 24.519V179.69C138.335 179.69 146.311 187.666 146.311 197.505V198.512C146.311 208.121 138.702 216.004 129.1 216.345V227.952H146.311C164.806 212.281 164.806 183.754 146.311 168.083V129.596L151.444 119.516V61.4791C171.793 62.2633 191.057 70.8612 205.229 85.4848L213.343 93.8573L211.863 93.6532C204.034 92.5732 196.09 92.642 188.281 93.8573C203.214 100.019 216.62 109.828 226.93 122.265L227.339 121.349C232.597 109.571 234.443 96.5531 232.667 83.7773Z" fill="url(#paint1_diamond_1_1108)"/>
</g>
<defs>
<filter id="filter0_i_1_1108" x="16.7728" y="24.519" width="104.827" height="210.433" filterUnits="userSpaceOnUse" color-interpolation-filters="sRGB">
<feFlood flood-opacity="0" result="BackgroundImageFix"/>
<feBlend mode="normal" in="SourceGraphic" in2="BackgroundImageFix" result="shape"/>
<feColorMatrix in="SourceAlpha" type="matrix" values="0 0 0 0 0 0 0 0 0 0 0 0 0 0 0 0 0 0 127 0" result="hardAlpha"/>
<feOffset dy="9"/>
<feGaussianBlur stdDeviation="3.5"/>
<feComposite in2="hardAlpha" operator="arithmetic" k2="-1" k3="1"/>
<feColorMatrix type="matrix" values="0 0 0 0 0 0 0 0 0 0 0 0 0 0 0 0 0 0 0.25 0"/>
<feBlend mode="normal" in2="shape" result="effect1_innerShadow_1_1108"/>
</filter>
<filter id="filter1_i_1_1108" x="128.496" y="24.519" width="104.827" height="210.433" filterUnits="userSpaceOnUse" color-interpolation-filters="sRGB">
<feFlood flood-opacity="0" result="BackgroundImageFix"/>
<feBlend mode="normal" in="SourceGraphic" in2="BackgroundImageFix" result="shape"/>
<feColorMatrix in="SourceAlpha" type="matrix" values="0 0 0 0 0 0 0 0 0 0 0 0 0 0 0 0 0 0 127 0" result="hardAlpha"/>
<feOffset dy="9"/>
<feGaussianBlur stdDeviation="3.5"/>
<feComposite in2="hardAlpha" operator="arithmetic" k2="-1" k3="1"/>
<feColorMatrix type="matrix" values="0 0 0 0 0 0 0 0 0 0 0 0 0 0 0 0 0 0 0.25 0"/>
<feBlend mode="normal" in2="shape" result="effect1_innerShadow_1_1108"/>
</filter>
<radialGradient id="paint0_diamond_1_1108" cx="0" cy="0" r="1" gradientUnits="userSpaceOnUse" gradientTransform="translate(68.1558 126.236) rotate(90) scale(101.716 53.4443)">
<stop stop-color="#BE00CF"/>
<stop offset="1" stop-color="#8D00CF"/>
</radialGradient>
<radialGradient id="paint1_diamond_1_1108" cx="0" cy="0" r="1" gradientUnits="userSpaceOnUse" gradientTransform="translate(181.94 126.236) rotate(90) scale(101.716 53.4443)">
<stop stop-color="#BE00CF"/>
<stop offset="1" stop-color="#8D00CF"/>
</radialGradient>
</defs>
</svg>
